<?xml version="1.0" encoding="utf-8"?>
<!-- Generator: Adobe Illustrator 21.1.0, SVG Export Plug-In . SVG Version: 6.00 Build 0)  -->
<svg version="1.1" id="Layer_1" xmlns="http://www.w3.org/2000/svg" xmlns:xlink="http://www.w3.org/1999/xlink" x="0px" y="0px"
	 viewBox="0 0 32 32" style="enable-background:new 0 0 32 32;" xml:space="preserve">
<style type="text/css">
	.st0{fill:#020202;}
</style>
<path d="M16,31.5c-0.7,0-1.4-0.1-2.1-0.2c-0.4-0.1-0.8-0.5-0.9-0.9l-0.3-1.7c0-0.2-0.3-0.5-0.5-0.6c-0.8-0.2-1.5-0.6-2.3-1
	c-0.2-0.1-0.5-0.1-0.7,0l-1.4,1c-0.4,0.3-0.9,0.3-1.3,0c-1.2-0.8-2.2-1.7-2.9-2.9c-0.2-0.4-0.2-0.9,0-1.3l1-1.5
	c0.1-0.2,0.2-0.5,0-0.7c-0.3-0.7-0.6-1.4-0.8-2.1c-0.1-0.2-0.3-0.5-0.5-0.5l-1.8-0.3c-0.4-0.1-0.8-0.5-0.9-0.9
	c-0.3-1.4-0.3-2.8,0-4.1C0.8,13.4,1.2,13,1.6,13l1.8-0.3c0.2,0,0.5-0.3,0.6-0.5c0.2-0.7,0.5-1.4,0.9-2.1C5,9.9,5,9.5,4.8,9.3l-1-1.5
	c-0.3-0.4-0.3-0.9,0-1.3c0.8-1.2,1.7-2.2,2.9-2.9C7,3.4,7.6,3.4,8,3.7l1.5,1c0.2,0.1,0.5,0.1,0.7,0c0.7-0.4,1.4-0.6,2.1-0.9
	c0.2-0.1,0.5-0.3,0.5-0.5l0.3-1.7c0.1-0.4,0.5-0.8,0.9-0.9c1.4-0.3,2.8-0.3,4.1,0c0.4,0.1,0.8,0.5,0.9,0.9l0.3,1.7
	c0,0.2,0.3,0.5,0.5,0.6c0.7,0.2,1.4,0.5,2,0.8c0.2,0.1,0.6,0.1,0.7,0l1.4-1c0.4-0.3,0.9-0.3,1.3,0c1.2,0.8,2.2,1.7,2.9,2.9
	c0.2,0.4,0.2,0.9,0,1.3l-1,1.4c-0.1,0.2-0.1,0.5,0,0.7c0.4,0.7,0.7,1.4,0.9,2.2c0.1,0.2,0.3,0.5,0.6,0.5l1.7,0.3
	c0.4,0.1,0.8,0.5,0.9,0.9c0.3,1.4,0.3,2.8,0,4.1l0,0c-0.1,0.4-0.5,0.8-0.9,0.9l-1.7,0.3c-0.2,0-0.5,0.3-0.5,0.5
	c-0.2,0.8-0.5,1.5-0.9,2.2c-0.1,0.2-0.1,0.6,0,0.7l1,1.4c0.3,0.4,0.3,0.9,0,1.3c-0.8,1.2-1.7,2.2-2.9,2.9c-0.4,0.2-0.9,0.2-1.3,0
	l-1.4-1c-0.2-0.1-0.5-0.1-0.7,0c-0.7,0.4-1.4,0.7-2.2,0.9c-0.2,0.1-0.5,0.3-0.5,0.5L19,30.4c-0.1,0.4-0.5,0.8-0.9,0.9
	C17.4,31.4,16.7,31.5,16,31.5z M9.7,26.6c0.2,0,0.4,0,0.6,0.1c0.7,0.4,1.4,0.7,2.2,0.9c0.4,0.1,0.8,0.5,0.8,0.9l0.3,1.7
	c0,0.2,0.3,0.5,0.5,0.5c1.3,0.3,2.6,0.3,3.9,0c0.2,0,0.4-0.3,0.5-0.5l0.3-1.7c0.1-0.4,0.4-0.8,0.8-0.9c0.7-0.2,1.4-0.5,2.1-0.9
	c0.4-0.2,0.9-0.2,1.3,0.1l1.4,1c0.2,0.1,0.5,0.1,0.7,0c1.1-0.7,2-1.7,2.8-2.8c0.1-0.2,0.1-0.5,0-0.7l-1-1.4
	c-0.2-0.3-0.3-0.9-0.1-1.3c0.4-0.7,0.7-1.4,0.9-2.1c0.1-0.4,0.5-0.8,0.9-0.8l1.7-0.3c0.2,0,0.5-0.3,0.5-0.5l0,0
	c0.3-1.3,0.3-2.6,0-3.9c0-0.2-0.3-0.4-0.5-0.5l-1.7-0.3c-0.4-0.1-0.8-0.4-0.9-0.8c-0.2-0.7-0.5-1.4-0.9-2.1
	c-0.2-0.4-0.2-0.9,0.1-1.3l1-1.4c0.1-0.2,0.1-0.5,0-0.7c-0.7-1.1-1.7-2-2.8-2.8c-0.2-0.1-0.5-0.1-0.7,0l-1.4,1
	c-0.3,0.2-0.9,0.3-1.3,0.1c-0.6-0.3-1.3-0.6-2-0.8c-0.4-0.1-0.8-0.5-0.8-0.9l-0.3-1.7c0-0.2-0.3-0.5-0.5-0.5c-1.3-0.3-2.6-0.3-3.9,0
	c-0.2,0-0.4,0.3-0.5,0.5l-0.3,1.7c-0.1,0.4-0.4,0.8-0.8,0.9c-0.7,0.2-1.4,0.5-2,0.8c-0.4,0.2-0.9,0.2-1.3-0.1l-1.5-1
	C7.5,4,7.2,4,7,4.1c-1.1,0.7-2,1.7-2.8,2.8C4.1,7,4.1,7.4,4.2,7.6l1,1.5c0.2,0.3,0.3,0.9,0.1,1.3c-0.3,0.6-0.6,1.3-0.8,2
	c-0.1,0.4-0.5,0.8-0.9,0.8l-1.8,0.3c-0.2,0-0.5,0.3-0.5,0.5c-0.3,1.3-0.3,2.6,0,3.9c0,0.2,0.3,0.4,0.5,0.5l1.8,0.3
	c0.4,0.1,0.8,0.4,0.9,0.8c0.2,0.7,0.5,1.4,0.8,2c0.2,0.4,0.2,0.9-0.1,1.3l-1,1.5C4,24.5,4,24.8,4.1,25c0.7,1.1,1.7,2,2.8,2.8
	c0.2,0.1,0.5,0.1,0.7,0l1.4-1C9.2,26.6,9.4,26.6,9.7,26.6z M16,23.9c-4.4,0-7.9-3.5-7.9-7.9s3.5-7.9,7.9-7.9c4.4,0,7.9,3.5,7.9,7.9
	S20.4,23.9,16,23.9z M16,8.6c-4.1,0-7.4,3.3-7.4,7.4s3.3,7.4,7.4,7.4c4.1,0,7.4-3.3,7.4-7.4S20.1,8.6,16,8.6z"/>
</svg>
