<?xml version="1.0" encoding="utf-8"?>
<!-- Generator: Adobe Illustrator 21.1.0, SVG Export Plug-In . SVG Version: 6.00 Build 0)  -->
<svg version="1.1" id="Layer_1" xmlns="http://www.w3.org/2000/svg" xmlns:xlink="http://www.w3.org/1999/xlink" x="0px" y="0px"
	 viewBox="0 0 32 32" style="enable-background:new 0 0 32 32;" xml:space="preserve">
<style type="text/css">
	.st0{fill:#020202;}
</style>
<path d="M28.4,12.7h-3.5V7.3c0-3.7-3-6.7-6.7-6.7h-3.6c-3.7,0-6.7,3-6.7,6.7l0,5.4H4.4c-0.8,0-1.5,0.7-1.5,1.5v15.7
	c0,0.8,0.7,1.5,1.5,1.5h24c0.8,0,1.5-0.7,1.5-1.5V14.2C29.9,13.4,29.2,12.7,28.4,12.7z M11.3,7.3c0-1.8,1.5-3.3,3.3-3.3h3.6
	c1.8,0,3.3,1.5,3.3,3.3v5.4H11.3V7.3z M18.2,22.2V25c0,1-0.8,1.8-1.8,1.8c-1,0-1.8-0.8-1.8-1.8v-2.7c-0.6-0.5-1-1.3-1-2.1
	c0-1.5,1.2-2.8,2.8-2.8c1.5,0,2.8,1.2,2.8,2.8C19.2,21,18.8,21.7,18.2,22.2z"/>
</svg>
