<?xml version="1.0" encoding="utf-8"?>
<!-- Generator: Adobe Illustrator 21.1.0, SVG Export Plug-In . SVG Version: 6.00 Build 0)  -->
<svg version="1.1" id="Layer_1" xmlns="http://www.w3.org/2000/svg" xmlns:xlink="http://www.w3.org/1999/xlink" x="0px" y="0px"
	 viewBox="0 0 32 32" style="enable-background:new 0 0 32 32;" xml:space="preserve">
<style type="text/css">
	.st0{fill:#020202;}
</style>
<path d="M31.5,30.5l-8.4-8.3c2.1-2.3,3.3-5.3,3.3-8.7c0-7.2-5.8-13-13-13s-13,5.8-13,13c0,7.2,5.8,13,13,13c3.3,0,6.3-1.3,8.6-3.3
	l8.4,8.3L31.5,30.5z M13.5,25.1c-6.4,0-11.5-5.2-11.5-11.6c0-6.4,5.2-11.6,11.5-11.6S25,7.1,25,13.5C25,19.9,19.8,25.1,13.5,25.1z"
	/>
</svg>
