<?xml version="1.0" encoding="utf-8"?>
<!-- Generator: Adobe Illustrator 21.1.0, SVG Export Plug-In . SVG Version: 6.00 Build 0)  -->
<svg version="1.1" id="Layer_1" xmlns="http://www.w3.org/2000/svg" xmlns:xlink="http://www.w3.org/1999/xlink" x="0px" y="0px"
	 viewBox="0 0 32 32" style="enable-background:new 0 0 32 32;" xml:space="preserve">
<style type="text/css">
	.st0{fill:#020202;}
</style>
<path d="M28.9,12.6H13.3c-1.2-2-3.4-3.4-5.9-3.4c-3.8,0-6.8,3-6.8,6.8c0,3.8,3,6.8,6.8,6.8c2.5,0,4.7-1.4,5.9-3.4h1.7l2.4-2.4
	l2.3,2.3l2.3-2.3l2.3,2.3l2.3-2.3l2.3,2.3l2.4-3.3L28.9,12.6z M4.7,18.5c-1.4,0-2.5-1.1-2.5-2.5c0-1.4,1.1-2.5,2.5-2.5
	c1.4,0,2.5,1.1,2.5,2.5C7.3,17.4,6.1,18.5,4.7,18.5z"/>
</svg>
