<svg xmlns="http://www.w3.org/2000/svg" viewBox="0 0 140.61 140.61"><title>Artboard 1</title><circle cx="70.31" cy="70.31" r="70.31" fill="#0071bc"/><path d="M72.21,85.11H68.94A1.2,1.2,0,0,1,67.74,84l-.49-4.73a13.16,13.16,0,0,1-3.42-1.42l-3.7,3a1.2,1.2,0,0,1-1.6-.08l-2.32-2.32a1.2,1.2,0,0,1-.08-1.6l3-3.7a13.14,13.14,0,0,1-1.42-3.42L53,69.27a1.2,1.2,0,0,1-1.07-1.19V64.8A1.2,1.2,0,0,1,53,63.61l4.73-.49a13.14,13.14,0,0,1,1.42-3.42l-3-3.7a1.2,1.2,0,0,1,.08-1.6l2.32-2.32a1.2,1.2,0,0,1,1.6-.08l3.7,3a13.13,13.13,0,0,1,3.42-1.42l.49-4.73a1.2,1.2,0,0,1,1.19-1.07h3.27a1.2,1.2,0,0,1,1.19,1.07l.49,4.73A13.14,13.14,0,0,1,77.32,55L81,52a1.2,1.2,0,0,1,1.6.08l2.32,2.32A1.2,1.2,0,0,1,85,56l-3,3.7a13.14,13.14,0,0,1,1.42,3.42l4.73.49a1.2,1.2,0,0,1,1.07,1.19v3.27a1.2,1.2,0,0,1-1.07,1.19l-4.73.49A13.14,13.14,0,0,1,82,73.18l3,3.7a1.2,1.2,0,0,1-.08,1.6l-2.32,2.32a1.2,1.2,0,0,1-1.6.08l-3.7-3A13.15,13.15,0,0,1,73.9,79.3L73.4,84A1.2,1.2,0,0,1,72.21,85.11Zm-2.94-1.57h2.61l.51-4.91a.78.78,0,0,1,.62-.73A11.61,11.61,0,0,0,77,76.26a.79.79,0,0,1,1,.12l3.78,3.07,1.84-1.84L80.5,73.8a.78.78,0,0,1-.11-1A11.59,11.59,0,0,0,82,68.87a.79.79,0,0,1,.76-.62l4.88-.51V65.13l-4.9-.51A.78.78,0,0,1,82,64a11.6,11.6,0,0,0-1.64-3.95.78.78,0,0,1,.13-1l3.06-3.78-1.84-1.84-3.81,3.09a.78.78,0,0,1-1,.11A11.59,11.59,0,0,0,73,55a.79.79,0,0,1-.62-.76l-.51-4.88H69.27l-.51,4.9a.78.78,0,0,1-.62.74,11.59,11.59,0,0,0-3.95,1.64.78.78,0,0,1-1-.13L59.4,53.42l-1.84,1.84,3.09,3.81a.78.78,0,0,1,.11,1A11.6,11.6,0,0,0,59.12,64a.79.79,0,0,1-.76.62l-4.88.51v2.61l4.9.51a.78.78,0,0,1,.74.62,11.59,11.59,0,0,0,1.64,3.95.79.79,0,0,1-.13,1l-3.06,3.78,1.84,1.84,3.81-3.09a.78.78,0,0,1,1-.11,11.62,11.62,0,0,0,3.95,1.64.79.79,0,0,1,.62.75Zm1.3-9.89a7.21,7.21,0,1,1,7.21-7.21A7.22,7.22,0,0,1,70.57,73.65Zm0-12.85a5.64,5.64,0,1,0,5.64,5.64A5.65,5.65,0,0,0,70.57,60.79Z" fill="#fff"/><path d="M80.37,98.22H60.78a.78.78,0,0,1-.71-.44,157.27,157.27,0,0,0-11.27-19,27.74,27.74,0,0,1-2-27.69A25.86,25.86,0,0,1,68.49,36.34a30.87,30.87,0,0,1,4.16,0h0A25.86,25.86,0,0,1,94.32,51.09a27.74,27.74,0,0,1-2,27.69,157.26,157.26,0,0,0-11.27,19A.78.78,0,0,1,80.37,98.22Zm-19.1-1.57h18.6A160.86,160.86,0,0,1,91.05,77.9a25.83,25.83,0,0,0,1.86-26.12A24.31,24.31,0,0,0,72.55,37.91a29.5,29.5,0,0,0-3.95,0A24.31,24.31,0,0,0,48.24,51.78,25.83,25.83,0,0,0,50.1,77.9,161,161,0,0,1,61.27,96.65Z" fill="#fff"/><path d="M80.37,98.22H60.78a.78.78,0,0,1,0-1.57H80.37a.78.78,0,0,1,0,1.57Z" fill="#fff"/><path d="M60.8,103.62a.78.78,0,0,1-.05-1.57l19.54-1.39a.78.78,0,0,1,.11,1.57l-19.54,1.39Z" fill="#fff"/><path d="M60.8,107.91a.78.78,0,0,1-.05-1.57L80.29,105a.78.78,0,1,1,.11,1.57l-19.54,1.39Z" fill="#fff"/><path d="M60.8,112.2a.78.78,0,0,1-.05-1.57l19.54-1.39a.78.78,0,0,1,.11,1.57L60.86,112.2Z" fill="#fff"/><path d="M80.37,116.35H60.78a.78.78,0,0,1,0-1.57H80.37a.78.78,0,0,1,0,1.57Z" fill="#fff"/><path d="M70.57,122.08h0a6.52,6.52,0,0,1-6.51-6.51.78.78,0,0,1,.78-.78H76.3a.78.78,0,0,1,.78.78A6.52,6.52,0,0,1,70.57,122.08Zm-4.88-5.73a5,5,0,0,0,4.88,4.16h0a5,5,0,0,0,4.88-4.16Z" fill="#fff"/><path d="M70.57,27.23a.78.78,0,0,1-.78-.78V19.16a.78.78,0,1,1,1.57,0v7.29A.78.78,0,0,1,70.57,27.23Z" fill="#fff"/><path d="M51.61,32.32a.78.78,0,0,1-.68-.39l-8.2-14.2a.78.78,0,1,1,1.36-.78l8.2,14.2a.78.78,0,0,1-.68,1.18Z" fill="#fff"/><path d="M32.65,65.16H16.25a.78.78,0,0,1,0-1.57h16.4a.78.78,0,1,1,0,1.57Z" fill="#fff"/><path d="M124.9,65.16H108.5a.78.78,0,1,1,0-1.57h16.4a.78.78,0,1,1,0,1.57Z" fill="#fff"/><path d="M89.53,32.32a.78.78,0,0,1-.68-1.18l8.2-14.2a.79.79,0,0,1,1.36.78l-8.2,14.2A.78.78,0,0,1,89.53,32.32Z" fill="#fff"/><path d="M37.73,46.2a.78.78,0,0,1-.39-.11L31,42.45a.78.78,0,0,1,.78-1.36l6.31,3.64a.78.78,0,0,1-.39,1.46Z" fill="#fff"/><path d="M109.73,87.77a.78.78,0,0,1-.39-.1L103,84a.78.78,0,1,1,.78-1.36l6.31,3.64a.78.78,0,0,1-.39,1.46Z" fill="#fff"/><path d="M31.42,87.77A.78.78,0,0,1,31,86.3l6.31-3.64A.78.78,0,1,1,38.12,84l-6.31,3.64A.78.78,0,0,1,31.42,87.77Z" fill="#fff"/><path d="M103.42,46.2a.78.78,0,0,1-.39-1.46l6.31-3.64a.78.78,0,1,1,.78,1.36l-6.31,3.64A.78.78,0,0,1,103.42,46.2Z" fill="#fff"/></svg>