<?xml version="1.0" encoding="utf-8"?>
<!-- Generator: Adobe Illustrator 21.0.0, SVG Export Plug-In . SVG Version: 6.00 Build 0)  -->
<svg version="1.1" id="Layer_1" xmlns="http://www.w3.org/2000/svg" xmlns:xlink="http://www.w3.org/1999/xlink" x="0px" y="0px"
	 viewBox="0 0 140 140" style="enable-background:new 0 0 140 140;" xml:space="preserve">
<style type="text/css">
	.st0{fill:url(#SVGID_1_);}
	.st1{fill:#FFFFFF;}
</style>
<g>
	
		<linearGradient id="SVGID_1_" gradientUnits="userSpaceOnUse" x1="69.4" y1="647.6" x2="69.4" y2="794.2" gradientTransform="matrix(1 0 0 1 0 -650)">
		<stop  offset="0" style="stop-color:#005F89"/>
		<stop  offset="1" style="stop-color:#00A1FF"/>
	</linearGradient>
	<rect x="-3.9" y="-2.4" class="st0" width="146.6" height="146.6"/>
</g>
<g>
	<path class="st1" d="M83.9,47.3c0-0.9,0-1.6,0-2.3c0-4.4-2-14-5.1-21.5c-2.3-5.6-5.3-10.1-8.5-10.1c-3.2,0-6.2,4.4-8.5,10.1
		C58.5,31,56.6,40.7,56.6,45c0,0.7,0,1.5,0,2.3L35,80.3V85h19.9v4.8h1.7h6.3h3.7V75.9c0-2.3-1.6-4.3-3.7-5c0-9.6,0-20.4,0-25.9
		c0-2.2,0.3-5.7,0.7-9.7c3.7-3.6,9.5-3.6,13.3,0.1c0.5,3.9,0.8,7.4,0.8,9.6c0,5.5,0,16.2,0,25.8c-2.2,0.7-3.8,2.7-3.8,5.1v13.8h3.8
		h6.2h1.7V85h0.1h19.8v-4.6L83.9,47.3z M47.4,80.6c-2.1,0-3.8-1.7-3.8-3.8c0-2.1,1.7-3.8,3.8-3.8c2.1,0,3.8,1.7,3.8,3.8
		C51.2,78.9,49.5,80.6,47.4,80.6z M64.7,28.1c0.3-1.6,0.6-3.1,0.9-4.6h9.3c0.3,1.5,0.6,3,0.9,4.6C72.3,26.7,68.3,26.7,64.7,28.1z
		 M93.1,80.6c-2.1,0-3.8-1.7-3.8-3.8c0-2.1,1.7-3.8,3.8-3.8s3.8,1.7,3.8,3.8C97,78.9,95.2,80.6,93.1,80.6z"/>
	<path class="st1" d="M85.7,91.9H73.9v5h6.9c0.2,0.3,0.4,0.5,0.5,0.8c1,1.6,1.2,3.4,0.4,5.1c-0.3,0.8-0.7,1.6-1.1,2.4
		c-1.1,2.3-1.6,4.8-1.4,7.4c0,0.6,0.1,1.1,0.2,1.7c-0.9-1.8-1.8-3.5-2.6-5.3c-0.8-1.8-1.6-3.6-2.4-5.3c-1.5,6.6-3.3,13.2-5.8,19.6
		c0.1-1.1,0.2-2.2,0.4-3.3c0.3-2.5,0.3-4.9-0.1-7.4c-0.3-2.1-1.2-4-2.5-5.7c0-0.1-0.1-0.1-0.2-0.2c-0.1,0.1-0.1,0.3-0.2,0.4
		c-0.7,1.9-1.6,3.8-2.6,5.5c-0.6,1.1-1.3,2.1-2.2,2.9c-0.2,0.2-0.5,0.4-0.7,0.6c0,0,0,0-0.1-0.1c0.6-1,0.9-2,1.1-3.1
		c0.3-1.8,0.1-3.5-0.2-5.3c-0.4-2-1-4-1.6-5.9c-0.5-1.6-0.8-3.1-0.6-4.8c0-0.1,0-0.1,0-0.2h7.6v-5H54.9v5h2.4c0,0,0,0.1-0.1,0.1
		c-1.5,3.1-1.7,6.3-0.2,9.5c0.7,1.5,1.3,3,1.7,4.5c0.7,2.7,0.7,5.3-0.4,7.9c-0.7,1.7-1.7,3.2-3,4.5c-0.7,0.8-1.6,1.5-2.3,2.3
		c5.4-2.4,9.5-6.1,12.3-11.5c1.7,5.5,2.7,10.9,1.5,16.5c0.1-0.1,0.1-0.1,0.1-0.1c0.1-0.2,0.3-0.3,0.4-0.5c1.3-1.7,2.2-3.7,3-5.6
		c1.6-3.9,2.8-8,3.8-12.1c0.1-0.6,0.3-1.2,0.4-1.8c1.9,5,3.9,9.9,7.2,14.2c-0.1-1-0.2-2-0.2-2.9c-0.1-3.7,0.5-7.3,1.8-10.8
		c0.6-1.6,1.1-3.3,1.6-4.9c0.2-0.6,0.2-1.2,0.3-1.8c0-0.4,0-0.9,0-1.3c0-0.1,0-0.2-0.1-0.4c-0.1-0.6-0.2-1.2-0.3-1.7
		c-0.4-1.5-1.1-2.9-1.9-4.3h2.7V91.9z"/>
	<polygon class="st1" points="39.6,47.8 40.3,50 42.6,50 40.7,51.3 41.4,53.4 39.6,52.1 37.7,53.4 38.4,51.3 36.6,50 38.9,50 	"/>
	<polygon class="st1" points="98,32.4 99.4,36.6 103.9,36.6 100.3,39.3 101.6,43.6 98,41 94.3,43.6 95.8,39.3 92,36.6 96.6,36.6 	
		"/>
	<polygon class="st1" points="43.6,22.2 44.9,26.5 49.4,26.5 45.8,29.2 47.2,33.4 43.6,30.8 39.9,33.4 41.3,29.2 37.6,26.5 
		42.2,26.5 	"/>
	<polygon class="st1" points="99.9,54.2 100.7,56.8 103.3,56.8 101.2,58.3 101.9,60.9 99.9,59.4 97.7,60.9 98.5,58.3 96.3,56.8 
		99,56.8 	"/>
</g>
</svg>
