<?xml version="1.0" encoding="utf-8"?>
<!-- Generator: Adobe Illustrator 21.0.0, SVG Export Plug-In . SVG Version: 6.00 Build 0)  -->
<svg version="1.1" id="Layer_1" xmlns="http://www.w3.org/2000/svg" xmlns:xlink="http://www.w3.org/1999/xlink" x="0px" y="0px"
	 viewBox="0 0 140 140" style="enable-background:new 0 0 140 140;" xml:space="preserve">
<style type="text/css">
	.st0{fill:url(#SVGID_1_);}
	.st1{fill:#FFFFFF;}
</style>
<g>
	
		<linearGradient id="SVGID_1_" gradientUnits="userSpaceOnUse" x1="69.4" y1="647.6" x2="69.4" y2="794.2" gradientTransform="matrix(1 0 0 1 0 -650)">
		<stop  offset="0" style="stop-color:#005F89"/>
		<stop  offset="1" style="stop-color:#00A1FF"/>
	</linearGradient>
	<rect x="-3.9" y="-2.4" class="st0" width="146.6" height="146.6"/>
</g>
<g>
	<path class="st1" d="M70.8,102.5c0,0,8.5-0.2,14.8-6.4c0,0-2,3.8-6.4,8.3c-1.2,1.3-2.1,2.3-2.9,3.1c1,1.5,2.7,4.3,3.6,5.6
		c0.9,1.2,2.4,3.7,3.8,4.3c1.1,0.4,3.2,0.1,4.3-0.2c1.3-0.3,4.1-0.4,4.8,0.8c-1.1,0-2.7,0-3.8,0.3c-0.8,0.2-1.4,0.3-1.9,0.4
		c1.5,0,3.2,0.3,4.3,0.4c2.2,0.2,4,0.8,4.9,2.8c-2.1-0.6-9-1.9-11.6-1.7c2,0.6,4.9,2.8,4.5,4.2c-1.5-1.3-3.9-2.5-6.1-3.3
		c-2.1-0.7-3.3-1-5.4-0.4c-0.2-1,2.1-2.4,3.5-1.8c-0.5-1.6-5-8-7.7-9.9c-1.8,0.1-4.7-0.8-5.7-3.5C67.8,105.7,70.1,104.4,70.8,102.5z
		"/>
	<path class="st1" d="M27.9,71.3c0.1,1.3,1.9,2.9,3.7,3c-0.5,0.4-1.3,0.4-1.8,0.5c0,0,0.7,1.4,1.7,2.5c1.1,1.1,2.5,2.2,4.1,3.1
		c0.4-1.9,1.2-3.9,2.5-5.6c0,0-1.1,3.7-0.8,6.9c0.2,2.1,0.7,5.3,2.6,8.4c4.2,6.3,10.1,9.2,10.1,9.2c-0.4,5.3,3.1,8.7,5.9,10
		c0.8,4.3,0.2,11.9,0.5,13.3c-3.7,0.2-4,2.3-4,2.3c1.8-0.9,3.4-1,5.5,0.8c1.7,1.5,4,2.8,5.4,4.4c0.8-0.9-1.3-3.9-3.2-4.7
		c1.9,0,7.1,1.6,10.7,3.1c-0.7-3.2-6.1-3.8-8.1-4.6c0.5-0.4,3.4-0.6,5.1,0c-1.3-2.8-7-1-9-2.4c-2.1-1.4,0.3-9.2,0.3-12.1
		c0,0,0,0-0.1,0c0.1-0.1,0.1-0.2,0.2-0.3c0.4-1.3,2.4-2.2,2.4-2.2c5.5-2.2,7.7-6.3,7.7-6.3c8.3-0.5,17.2-6.9,21.1-10.9
		c4-0.5,7.3-3.4,9-7.2c5.5-10.7-2.8-27.3-5.5-36.1c-0.8-3.2-0.1-5.5,1.2-7.1c0,0.6,0.4,1.3,1.3,1.9c2.2,1.3,4.6-0.2,5.2-2.2
		c0.7-2.4,0.2-3.7,0.2-3.7c1.9,0.1,3.9,0.5,4.9,1.2c0.1-1.4-1.6-3.3-3.3-3.6c0,0,2.9,0.1,2.9-1.2c0-0.5-0.6-0.8-0.7-1.3
		c-0.2-0.6,0.1-1.1-0.2-1.5c-0.3-0.5-0.8-0.2-1.2-0.5c-0.3-0.2,0.2-1.5-0.2-1.9c-0.7-0.7-1.1,0.9-1.7-0.4c-0.2-0.5,0.3-2.5-0.5-2.8
		c-0.6-0.2-1.1,1.5-1.6,1.8c-1-1-0.2-3.8-2-4.3c0,0.9-0.5,1.6-1,2.2c-0.9-0.9-1.1-2.2-1.4-3.4c-0.7-0.3-2.3,1.2-2.7,1.8
		c-0.6,0.9-0.7,2.3-0.1,3.2c0.4,0.8,1.5,1,2.6,1.1c-0.2,0-0.3,0-0.5,0c-19.1,0.9-20.1,29.8-20.1,29.8c-8.5,1.5-15.2,5.9-20,7.9
		c-2.5,1.3-5.3,0.7-7,0.1l0,0c0,0-15.9-12.3-17.7-13.2c0,0,0,0.1-0.1,0.2c-1,3.1,4.9,10.5,6.7,12.2c-2-1.4-7-5.7-8.6-7.4
		c-0.1-0.1-1.1,1.9,0.1,4.5c0.9,2,3.5,3.7,4.9,5.2c-2.1-1.3-4.8-2.8-6.5-4.5c-0.5,2.3,1.5,5.5,4.1,7.5c-1-0.1-3.3-1.2-4.2-1.6
		c-0.1,1.8,1.7,3.8,3.8,4.8C29.8,71.6,28.8,71.4,27.9,71.3z M98.3,31.6c0-0.6,0.5-1,1-1c0.6,0,1,0.5,1,1c0,0.6-0.5,1-1,1
		C98.8,32.6,98.3,32.1,98.3,31.6z M94.8,31.7c-1.2,1.8-0.3,4,1.2,4.7c-1.3,0-2.3-1-2.6-1.7C92.5,32.5,94.8,31.7,94.8,31.7z M47,85.4
		c1.5,0.2,2.9,0.4,4.4,0.6c8.9,0.8,15.3-1,18.7-3.6c-1.9,2.5-4.5,4-7.1,4.8c6.8,0.2,13.4-0.8,19.3-5.1c10.7-7.6,6.3-24-8.6-19.6
		c4.2-2.2,7.2-1.9,10-0.7c8,3.5,8.6,17.8-3.2,24.3C70.3,91.7,55.1,90.5,47,85.4z M42.6,82.2c6.2,0.4,12.1,0.5,18.2-0.7
		c-1.4,1.4-3.7,2.3-5.4,2.5C55.3,84.1,47.6,85,42.6,82.2z"/>
</g>
</svg>
