<?xml version="1.0" encoding="utf-8"?>
<!-- Generator: Adobe Illustrator 21.0.0, SVG Export Plug-In . SVG Version: 6.00 Build 0)  -->
<svg version="1.1" id="Layer_1" xmlns="http://www.w3.org/2000/svg" xmlns:xlink="http://www.w3.org/1999/xlink" x="0px" y="0px"
	 viewBox="0 0 140 140" style="enable-background:new 0 0 140 140;" xml:space="preserve">
<style type="text/css">
	.st0{fill:url(#SVGID_1_);}
	.st1{fill:#FFFFFF;}
</style>
<g>
	
		<linearGradient id="SVGID_1_" gradientUnits="userSpaceOnUse" x1="69.4" y1="647.6" x2="69.4" y2="794.2" gradientTransform="matrix(1 0 0 1 0 -650)">
		<stop  offset="0" style="stop-color:#005F89"/>
		<stop  offset="1" style="stop-color:#00A1FF"/>
	</linearGradient>
	<rect x="-3.9" y="-2.4" class="st0" width="146.6" height="146.6"/>
</g>
<path id="XMLID_1437_" class="st1" d="M33.1,61.8c8.1,0,12.9-1.4,14.8-3.1v0c0.4-0.4,0.6-0.7,0.6-0.9c0-0.3-0.3-0.7-0.7-1.2
	c-2.2-2.1-7.4-3.7-15.4-3.7c-5.4,0-10.2,1.1-13.5,3.1c-2.8,1.7-4.5,4-4.5,6.7c0,2.1,1.1,3.8,3,5.1v0c2.5,1.7,6.1,2.7,10.5,3.1
	c11.2,1,25.8-1.4,40.5-3.9c20.2-3.4,43.1-6.4,57-1.4l1.6,0.6V68v31.7v3.5l-3.3-1.2c-12.6-4.6-35-1.7-54.5,1.6
	c-15.1,2.5-30,5-41.8,3.9c-5.2-0.5-9.7-1.8-12.8-3.9v0c-3.3-2.2-5.2-5.3-5.2-9.2V62.7c0-4.6,2.6-8.3,6.9-10.9
	c4.1-2.4,9.7-3.8,16-3.8c9.3,0,15.7,2.3,18.7,5.1c1.4,1.4,2.2,2.9,2.3,4.6c0.1,1.7-0.6,3.3-2.1,4.7l0,0c-2.7,2.6-8.7,4.5-18.1,4.5
	V61.8z M37.1,102.8V92.1h2.3v10.5c1.3-0.1,2.7-0.2,4.1-0.3V91.8h2.3v10.2c1.3-0.1,2.7-0.3,4.1-0.5V91.5h2.3v9.8
	c1.4-0.2,2.9-0.4,4.3-0.6V84.5h2.3v15.8c1.8-0.3,3.6-0.6,5.4-0.9V88.6h2.3V99l1.9-0.3c0.7-0.1,1.4-0.2,2.2-0.4V87.4h2.3V98
	c1.4-0.2,2.7-0.4,4.1-0.6V86.2h2.3V97c1.4-0.2,2.7-0.4,4.1-0.6V85.1h2.3v11.1c1.5-0.2,3.1-0.4,4.6-0.5V79h2.3v16.5
	c1.2-0.1,2.5-0.2,3.7-0.3V84h2.3v11c1.4-0.1,2.7-0.2,4.1-0.2V84.3h2.3v10.4c1.4,0,2.7,0,4.1,0V84.6h2.3v10.2
	c1.4,0.1,2.8,0.2,4.1,0.3V85h2.3v10.4c1.6,0.2,3.2,0.5,4.6,0.9V69.7c-12.7-3.8-34.2-1-52.9,2.2c-15.1,2.5-30,5-41.8,3.9
	c-5.2-0.5-9.7-1.8-12.8-3.9l0,0c-0.1-0.1-0.2-0.1-0.2-0.2v22.6c0,2.1,1.1,3.8,3,5.1v0c0.2,0.1,0.4,0.3,0.6,0.4v-9.8h2.3V101
	c1.3,0.5,2.7,0.9,4.2,1.2V87.3h2.3v15.2c0.4,0,0.7,0.1,1.1,0.1c1,0.1,1.9,0.2,2.9,0.2V92.5h2.3v10.4
	C34.4,102.8,35.8,102.8,37.1,102.8L37.1,102.8z"/>
</svg>
