<?xml version="1.0" encoding="utf-8"?>
<!-- Generator: Adobe Illustrator 21.0.0, SVG Export Plug-In . SVG Version: 6.00 Build 0)  -->
<svg version="1.1" id="Layer_1" xmlns="http://www.w3.org/2000/svg" xmlns:xlink="http://www.w3.org/1999/xlink" x="0px" y="0px"
	 viewBox="0 0 140 140" style="enable-background:new 0 0 140 140;" xml:space="preserve">
<style type="text/css">
	.st0{fill:url(#SVGID_1_);}
	.st1{fill:#FFFFFF;}
</style>
<g>
	
		<linearGradient id="SVGID_1_" gradientUnits="userSpaceOnUse" x1="69.4" y1="144.4" x2="69.4" y2="-2.2" gradientTransform="matrix(1 0 0 -1 0 142)">
		<stop  offset="0" style="stop-color:#005F89"/>
		<stop  offset="1" style="stop-color:#00A1FF"/>
	</linearGradient>
	<rect x="-3.9" y="-2.4" class="st0" width="146.6" height="146.6"/>
</g>
<g>
	<path class="st1" d="M88.5,97.8c0.9-0.1,1.9-0.2,2.7-0.3c19.7-2.7,30.9-2,30.9-2s3.3-11.2,0.4-21.6c-0.1-0.4-1.9-5.1-2-5.4
		C118.8,68.5,92.3,73.4,88.5,97.8z"/>
	<path class="st1" d="M98.3,55.8h20.7c-0.1-4.1-0.1-7.7-0.3-9c-0.1-1.1-1.1-1.8-2.1-1.8H93.8v6.3C93.8,53.8,95.8,55.8,98.3,55.8z"/>
	<path class="st1" d="M122.1,96.5c0,0-11.2-0.7-30.9,2c-19.7,2.7-60.2,3.3-75.1,3.3l-0.4,0.1l-0.4,0.1c-0.9,0.3-1.5,1.2-1.4,2.2
		l0.6,4.3c0.1,0.7,0.6,1.3,1.3,1.5c0.8,0.2,2,0.5,3.7,0.6c0.6,0,1.1-0.2,1.5-0.7c0,0,0.1-0.1,0.1-0.1c0.7-0.9,1.8-1.5,2.9-1.5
		c0.9,0,1.9,0.4,2.5,1l0.9,0.9c0.3,0.3,0.7,0.5,1.1,0.5h1.1c0.4,0,0.8-0.2,1.1-0.5l1.1-1c0.6-0.5,1.3-0.8,2.1-0.8
		c0.8,0,1.5,0.3,2.1,0.8l1.1,1c0.3,0.3,0.7,0.5,1.1,0.5h1.1c0.4,0,0.8-0.2,1.1-0.5l1.4-1.3c0.4-0.4,0.9-0.6,1.5-0.6h0.7
		c0.6,0,1.1,0.2,1.5,0.6l1.4,1.3c0.3,0.3,0.7,0.5,1.1,0.5h1.1c0.4,0,0.8-0.2,1.1-0.5l1.4-1.3c0.4-0.4,0.9-0.6,1.5-0.6h0.7
		c0.6,0,1.1,0.2,1.5,0.6l1.4,1.3c0.3,0.3,0.7,0.5,1.1,0.5h1.1c0.4,0,0.8-0.2,1.1-0.5l1.4-1.3c0.4-0.4,0.9-0.6,1.5-0.6h0.7
		c0.6,0,1.1,0.2,1.5,0.6l1.4,1.3c0.3,0.3,0.7,0.5,1.1,0.5H69c0.4,0,0.8-0.2,1.1-0.5l1.6-1.5c0.3-0.2,0.6-0.4,0.9-0.5l3.8-1.1
		c3.6-1,7.4-1.7,11.2-2c1.4-0.1,2.6,0.8,3,2.1c0.2,0.7,0.6,1.3,1.1,1.8l1,1.1c0.3,0.3,0.7,0.5,1.2,0.5h0.7c0.5,0,1-0.2,1.3-0.6
		l1.1-1.4c0.4-0.5,1-0.8,1.7-0.8h0.1c0.7,0,1.3,0.3,1.7,0.8l1.1,1.4c0.3,0.4,0.8,0.6,1.3,0.6h0.6c0.5,0,1-0.3,1.3-0.7l1.1-1.6
		c0.4-0.6,1.1-0.9,1.8-0.9c0.7,0,1.4,0.3,1.8,0.9l1.1,1.6c0.3,0.4,0.8,0.7,1.3,0.7h0.6c0.5,0,1-0.2,1.3-0.6l1.1-1.4
		c0.4-0.5,1-0.8,1.7-0.8h0.1c0.7,0,1.3,0.3,1.7,0.8l1.1,1.4c0.3,0.4,0.8,0.6,1.3,0.6c0.8,0,1.5-0.6,1.6-1.4l1.3-9.6
		c0.1-0.8-0.1-1.7-0.7-2.3L122.1,96.5z"/>
	<path class="st1" d="M51.2,77.8c-0.9,0.1-1.9,0.1-2.9,0.1c2.1,1.7,4.4,4.1,5,6.5c1.1,4.1,2.5,13,2.9,15.6c11.1-0.4,22.3-1.1,30.9-2
		c3.5-26.4,31.3-30.9,33.1-31.1c-0.7-2.6-1-6.1-1.1-9.5H98.3c-3.4,0-6.1-2.8-6.1-6.1V45H92c-2,0-4,0.5-5.7,1.4
		c-2.6,1.4-4.7,3.7-5.8,6.5l-1.1-0.5c0-0.1,0.1-0.2,0.1-0.4c4-11.7,10.9-7.2,9.8-11.8c-2-8.1-7.8-7.9-10.1,0.6
		c-0.5,1.8-0.6,5.5-2.4,10.4c-0.6-0.3-1.4,0-1.7,0.6l-0.5,1.1c-0.3,0.6,0,1.4,0.6,1.7l0.1,0c-0.3,0.7-0.7,1.3-1.1,2
		c-0.6-0.3-1.3-0.1-1.6,0.5l-0.7,1.1c-0.3,0.5-0.2,1.2,0.2,1.6c-0.4,0.6-0.8,1.1-1.3,1.6l-0.1-0.1c-0.6-0.4-1.4-0.4-1.8,0.2l-0.8,1
		c-0.4,0.5-0.4,1.3,0.1,1.7c-0.5,0.4-0.9,0.9-1.4,1.3l-0.1-0.1c-0.5-0.5-1.3-0.6-1.8-0.1l-0.9,0.8c-0.5,0.5-0.6,1.3-0.1,1.8
		c-0.6,0.4-1.1,0.8-1.7,1.2L62,68.9c-0.4-0.6-1.2-0.7-1.8-0.3l-1,0.7c-0.6,0.4-0.7,1.2-0.3,1.8c-3,1.9-6,3.5-8.7,5.6
		c3.9-0.4,7.4-1.5,10.6-3.1l0.8,1.1C58.4,76.4,55,77.4,51.2,77.8z M65.7,79.1c-1.2,0-2.1-1-2.1-2.1c0,0,0-0.1,0-0.1l1.3,1.1
		c0.4,0.4,1,0.4,1.5,0.1l0,0c0.4-0.3,0.6-0.9,0.4-1.4l-0.8-1.8c1.1,0.1,1.9,1,1.9,2.1C67.9,78.2,66.9,79.1,65.7,79.1z M71.3,75.3
		c-1.2,0-2.1-0.9-2.1-2.1l1.3,0.9c0.4,0.3,1,0.3,1.5-0.1c0.4-0.4,0.5-1,0.2-1.4l-0.8-1.5c0,0,0,0,0,0c1.2,0,2.1,1,2.1,2.1
		C73.4,74.4,72.5,75.3,71.3,75.3z M76.4,70.6c-1.1,0-2.1-0.9-2.1-2l1.5,0.7c0.5,0.2,1.1,0.1,1.4-0.3c0.3-0.4,0.3-1,0-1.5l-1-1.2
		c0.1,0,0.1,0,0.2,0c1.2,0,2.2,1,2.2,2.2C78.5,69.6,77.6,70.6,76.4,70.6z M80.8,65.1c-1,0-1.8-0.7-2.1-1.6l1.6,0.5
		c0.5,0.2,1.1,0,1.4-0.5c0.3-0.5,0.2-1.1-0.2-1.4l-1.2-1.2c0.2,0,0.3-0.1,0.5-0.1c1.2,0,2.1,1,2.1,2.1C82.9,64.1,82,65.1,80.8,65.1z
		 M86.2,56.6c0,1.2-1,2.1-2.1,2.1c-0.9,0-1.6-0.5-2-1.3l1.6,0.4c0.5,0.1,1.1-0.1,1.3-0.6c0.2-0.5,0.1-1.1-0.3-1.4l-1.4-1.1
		c0.2-0.1,0.5-0.2,0.8-0.2C85.2,54.5,86.2,55.4,86.2,56.6z M79.1,56.5c-0.3,0.8-0.8,1.6-1.2,2.4l-1.1-0.7c0.5-0.8,0.9-1.6,1.2-2.3
		L79.1,56.5z M74.6,61.4l1.2,0.7c-0.5,0.7-1,1.4-1.5,2c0,0,0,0-0.1-0.1l-1-0.8C73.7,62.7,74.2,62.1,74.6,61.4z M70.7,66.2l1.1,0.9
		c-0.6,0.6-1.2,1.2-1.9,1.8c-0.1-0.1-0.1-0.1-0.2-0.2L69,67.9C69.5,67.4,70.1,66.8,70.7,66.2z M64.7,72.7l-0.6-0.9
		c0.7-0.4,1.3-0.9,1.9-1.4l0.8,0.9c0,0,0.1,0.1,0.1,0.1c-0.7,0.5-1.3,1-2.1,1.5C64.8,72.8,64.8,72.7,64.7,72.7z"/>
	<path class="st1" d="M16.2,100.7c7.9,0,23.2-0.2,38.7-0.7c-0.4-2.7-1.7-11.4-2.8-15.3c-0.7-2.6-3.8-5.2-6.1-6.9
		c-0.3,0-0.5,0-0.8-0.1c-18.8-2.1-26.6,7.6-28.1,10.8C15,93,15.6,97,15.8,100.3C15.8,100.6,16,100.7,16.2,100.7z"/>
</g>
</svg>
