<?xml version="1.0" encoding="utf-8"?>
<!-- Generator: Adobe Illustrator 21.0.0, SVG Export Plug-In . SVG Version: 6.00 Build 0)  -->
<svg version="1.1" id="Layer_1" xmlns="http://www.w3.org/2000/svg" xmlns:xlink="http://www.w3.org/1999/xlink" x="0px" y="0px"
	 viewBox="0 0 140 140" style="enable-background:new 0 0 140 140;" xml:space="preserve">
<style type="text/css">
	.st0{fill:url(#SVGID_1_);}
	.st1{fill:#FFFFFF;}
</style>
<g>
	
		<linearGradient id="SVGID_1_" gradientUnits="userSpaceOnUse" x1="69.4" y1="647.6" x2="69.4" y2="794.2" gradientTransform="matrix(1 0 0 1 0 -650)">
		<stop  offset="0" style="stop-color:#005F89"/>
		<stop  offset="1" style="stop-color:#00A1FF"/>
	</linearGradient>
	<rect x="-3.9" y="-2.4" class="st0" width="146.6" height="146.6"/>
</g>
<g>
	<path class="st1" d="M96.9,67.3l-13,7.1l-2.1,3l8.4,35.3l-19.3-9.7l0-7.8c0-0.7-0.6-1.3-1.3-1.3c-0.7,0-1.3,0.6-1.3,1.3l0,7.8
		l-19.3,9.7l8.4-35.3l-2.1-3l-13-7.1l-19.6,37.1l24.4,12.3l22.6-11.4L92,116.8l24.4-12.3L96.9,67.3z M45.9,113.3l-19.9-10L43,71
		l11.4,6.2L45.9,113.3z M84.4,77.2L95.8,71l17,32.3l-19.9,10L84.4,77.2z"/>
	<path class="st1" d="M69.4,89.9l18-24.9c2.6-3.6,4-8.1,4-12.8c0-12.2-9.8-22.1-22-22.1c-12.2,0-22,9.9-22,22.1
		c0,4.8,1.5,9.2,4,12.8L69.4,89.9z M69.4,41c6.1,0,11,5,11,11.1c0,6.1-4.9,11.1-11,11.1c-6.1,0-11-5-11-11.1
		C58.4,46,63.3,41,69.4,41z"/>
</g>
</svg>
