<?xml version="1.0" encoding="utf-8"?>
<!-- Generator: Adobe Illustrator 21.0.0, SVG Export Plug-In . SVG Version: 6.00 Build 0)  -->
<svg version="1.1" id="Layer_1" xmlns="http://www.w3.org/2000/svg" xmlns:xlink="http://www.w3.org/1999/xlink" x="0px" y="0px"
	 viewBox="0 0 140 140" style="enable-background:new 0 0 140 140;" xml:space="preserve">
<style type="text/css">
	.st0{fill:url(#SVGID_1_);}
	.st1{fill:#FFFFFF;}
</style>
<g>
	
		<linearGradient id="SVGID_1_" gradientUnits="userSpaceOnUse" x1="69.4" y1="647.6" x2="69.4" y2="794.2" gradientTransform="matrix(1 0 0 1 0 -650)">
		<stop  offset="0" style="stop-color:#005F89"/>
		<stop  offset="1" style="stop-color:#00A1FF"/>
	</linearGradient>
	<rect x="-3.9" y="-2.4" class="st0" width="146.6" height="146.6"/>
</g>
<g>
	<path class="st1" d="M63.1,48.4l3,3.9h30.3v-9c0-1.2-1.2-2.1-2.5-2.1H59.1l-3-4c-0.5-0.7-1.6-1.2-2.4-1.2H38.5
		c-0.8,0-2,0.5-2.5,1.2L33,41v40c0,1.2,1.1,2.3,2.3,2.3h4.6v-31l3-3.9c0.5-0.7,1.6-1.2,2.5-1.2h15.2C61.5,47.2,62.6,47.8,63.1,48.4z
		"/>
	<path class="st1" d="M107.7,63.6H73l-3-4c-0.5-0.7-1.6-1.3-2.4-1.3H52.3c-0.9,0-2,0.5-2.5,1.2l-3.1,3.9v40c0,1.2,1.2,2.1,2.5,2.1
		h58.5c1.3,0,2.3-0.9,2.3-2.1V65.8C110,64.6,108.9,63.6,107.7,63.6z"/>
</g>
</svg>
