<?xml version="1.0" encoding="utf-8"?>
<!-- Generator: Adobe Illustrator 21.0.0, SVG Export Plug-In . SVG Version: 6.00 Build 0)  -->
<svg version="1.1" id="Layer_1" xmlns="http://www.w3.org/2000/svg" xmlns:xlink="http://www.w3.org/1999/xlink" x="0px" y="0px"
	 viewBox="0 0 140 140" style="enable-background:new 0 0 140 140;" xml:space="preserve">
<style type="text/css">
	.st0{fill:url(#SVGID_1_);}
	.st1{fill:#FFFFFF;}
</style>
<g>
	
		<linearGradient id="SVGID_1_" gradientUnits="userSpaceOnUse" x1="69.4" y1="-505.6" x2="69.4" y2="-652.2" gradientTransform="matrix(1 0 0 -1 0 -508)">
		<stop  offset="0" style="stop-color:#005F89"/>
		<stop  offset="1" style="stop-color:#00A1FF"/>
	</linearGradient>
	<rect x="-3.9" y="-2.4" class="st0" width="146.6" height="146.6"/>
</g>
<g>
	<path class="st1" d="M39.9,92.2l-1-10.5l0,0l-0.3-3.5l5-1.3c1.6,2.2,5.1,2.7,8.1,1.2c3.4-1.7,5-5.3,3.7-8c-1.4-2.7-5.2-3.5-8.6-1.8
		c-1.6,0.8-2.9,2.1-3.5,3.5l-5.8,1.6l-0.5-6.1c1.1-1.1,1.8-2.7,2-4.5c0.4-3.8-1.7-7.1-4.7-7.4c-3-0.3-5.8,2.4-6.2,6.2
		C27.7,65,29.4,68,32,68.8l0.5,5.2l-2.7,0.7l-7.2,1.8c-4.3,1.5-2.2,6.2-2.2,6.2l10.4-2.4l2.2-0.5l0.2,2l0,0l0.8,7.4
		C34.9,93.5,39.9,92.2,39.9,92.2z M33.2,65.7c-1.4-0.1-2.5-1.8-2.3-3.7c0.1-2,1.4-3.5,2.8-3.4c1.4,0.1,2.5,1.8,2.3,3.7
		C35.9,64.3,34.6,65.8,33.2,65.7z M48.3,70.9c1.8-0.8,3.7-0.4,4.3,0.9c0.6,1.3-0.4,3-2.2,3.8c-1.8,0.8-3.7,0.4-4.3-0.9
		C45.5,73.4,46.5,71.7,48.3,70.9z"/>
	<g>
		<path class="st1" d="M92.8,112.6c-4.1-1,3.9-38.8-1.7-44.8h-6.5v3.9h-7.8v-3.9H71c-1.3,3.4-5.8,12.4-16.8,17.9
			c-13.9,6.8-9,20-9.7,22.2c0,0-17.8,8-17.1-10.2c0,0-4.6,23.9,20.2,19.3c0,0-0.6,2.2,1.7,2.4c2.2,0.2,29,0,29,0s8.5-1.2,0-9.5
			c0,0,4.5-3.4,4.4-5.4l0,14.1c0,0,10.5,1.1,12.3-0.1C96.8,117.2,97,113.6,92.8,112.6z"/>
		<path class="st1" d="M117.8,38.8c-4.4-15.4-20.5-13.3-23.2-11.4c0,0-15.9-6.7-25.3,0.7c0,0-9.6-7.1-19.6-3.5
			c-10,3.6-23.3,19.8-17.3,23.7c3.2,2.1,10.1,2.9,13.2-0.5c4.3-5.6,13.9-7,16.9-10.9c0,0,2,12.4,6.8,16.6c0,0-6.8,7.8,2.2,12.9
			c0,0,0,0,0,0.1h5.3h7.8h7.9c1.9-1.9,4.7-5.9,2.5-11.8c0,0,6.8-8.1,4.7-20.3c7.6,9.9-5,23.2,5.5,28.4
			C113.7,65.3,122.2,54.2,117.8,38.8z"/>
	</g>
</g>
</svg>
