<?xml version="1.0" encoding="utf-8"?>
<!-- Generator: Adobe Illustrator 21.0.0, SVG Export Plug-In . SVG Version: 6.00 Build 0)  -->
<svg version="1.1" id="Layer_1" xmlns="http://www.w3.org/2000/svg" xmlns:xlink="http://www.w3.org/1999/xlink" x="0px" y="0px"
	 viewBox="0 0 140 140" style="enable-background:new 0 0 140 140;" xml:space="preserve">
<style type="text/css">
	.st0{fill:url(#SVGID_1_);}
	.st1{fill:#FFFFFF;}
</style>
<g>
	
		<linearGradient id="SVGID_1_" gradientUnits="userSpaceOnUse" x1="69.4" y1="647.6" x2="69.4" y2="794.2" gradientTransform="matrix(1 0 0 1 0 -650)">
		<stop  offset="0" style="stop-color:#005F89"/>
		<stop  offset="1" style="stop-color:#00A1FF"/>
	</linearGradient>
	<rect x="-3.9" y="-2.4" class="st0" width="146.6" height="146.6"/>
</g>
<g>
	<polygon class="st1" points="105,64.5 105.1,64.6 108.3,66.2 111.6,57.4 109.3,56.3 109.3,56.2 107,55 101.8,62.9 	"/>
	<path class="st1" d="M118.3,50.4c1.6-4.8-0.1-11.7-0.1-11.7s-0.8,2.6-2.6,3.7c-1,0.6-2.9,0.2-6.2,3.6c-3.3,3.3-2.2,7.9-2.2,7.9
		l3.1,1.6c1-0.4,3-1.6,4.8-5c2.5-4.9,2.5-6.7,2.5-6.7s0.4,3.7-1.6,7.9c-1.4,3-3.2,4.1-4.1,4.5l0.8,0.4
		C112.7,56.7,116.6,55.5,118.3,50.4z"/>
	<path class="st1" d="M113.4,58.6c0,0-6.1,15.3-7.3,18c0.1,0.6,0.2,1.1,0.2,1.7c0,4.7-3.8,8.4-8.4,8.4c-4.7,0-8.4-3.8-8.4-8.4
		c0-3.7,2.4-6.8,5.7-8c1.4-2.4,10.1-16.3,10.1-16.3c-0.2-1-0.5-4,1-7C87.5,32.3,48,31.5,28.1,54.5c-23.9,27.6-10.1,62.4,23,60.3
		c17.1-1.1,8.2-21,47.5-22.5c20.8-0.8,21.2-21.6,16-34.3C114,58.3,113.6,58.5,113.4,58.6z M22,72.8c0.8-2.6,5.5-3.3,10.4-1.7
		c4.9,1.6,8.2,4.9,7.4,7.5c-0.8,2.6-5.5,3.3-10.4,1.7C24.5,78.7,21.2,75.4,22,72.8z M35,102.2c-5.1,0.7-9.5-0.9-9.9-3.5
		c-0.4-2.7,3.5-5.4,8.6-6.1c5.1-0.7,9.5,0.9,9.9,3.5C44,98.8,40.1,101.5,35,102.2z M50.8,64.8c-2,1.8-6.4,0.3-9.9-3.5
		c-3.5-3.8-4.8-8.3-2.8-10.1c2-1.8,6.4-0.3,9.9,3.5C51.5,58.4,52.7,63,50.8,64.8z M72.8,50.7c-0.3,5.1-2.7,9.2-5.4,9
		c-2.7-0.2-4.6-4.5-4.3-9.6c0.3-5.1,2.7-9.2,5.4-9C71.1,41.3,73.1,45.6,72.8,50.7z"/>
	<path class="st1" d="M107.6,67.1c-0.5,1.6-1.2,3.2-1.9,5c-0.5,1.3-1.1,2.6-1.7,4l0,0.1c-0.4,0.9-0.8,1.8-1.3,2.8l0,0l-3,6.4
		c0,0,0,0,0,0c0,0,0,0,0,0c-0.3,0-0.6,0-0.8,0c-3.4,0-6.3-2-7.6-4.8l5.1-8.3c0.7-1.3,1.5-2.5,2.2-3.7c1-1.7,2-3.2,3-4.6L107.6,67.1z
		"/>
	<path class="st1" d="M83.3,96.4c-3.4,7.8-4.9,13.3-3.4,14.1c1.8,1,7.4-5.7,13.8-15.8C89.6,95.1,86.2,95.7,83.3,96.4z"/>
</g>
</svg>
