<?xml version="1.0" encoding="utf-8"?>
<!-- Generator: Adobe Illustrator 21.0.0, SVG Export Plug-In . SVG Version: 6.00 Build 0)  -->
<svg version="1.1" id="Layer_1" xmlns="http://www.w3.org/2000/svg" xmlns:xlink="http://www.w3.org/1999/xlink" x="0px" y="0px"
	 viewBox="0 0 140 140" style="enable-background:new 0 0 140 140;" xml:space="preserve">
<style type="text/css">
	.st0{fill:url(#SVGID_1_);}
	.st1{fill:#FFFFFF;}
</style>
<g>
	
		<linearGradient id="SVGID_1_" gradientUnits="userSpaceOnUse" x1="69.4" y1="-505.6" x2="69.4" y2="-652.2" gradientTransform="matrix(1 0 0 -1 0 -508)">
		<stop  offset="0" style="stop-color:#005F89"/>
		<stop  offset="1" style="stop-color:#00A1FF"/>
	</linearGradient>
	<rect x="-3.9" y="-2.4" class="st0" width="146.6" height="146.6"/>
</g>
<path class="st1" d="M104.6,59.4L85,56.6c-0.6-0.1-1.1-0.5-1.4-1l-8.8-17.7c-0.9-1.9-2.8-3-4.9-3h0c-2.1,0-4,1.2-4.9,3l-8.8,17.7
	c-0.3,0.5-0.8,0.9-1.4,1l-19.6,2.8c-2.1,0.3-3.8,1.7-4.4,3.7c-0.6,2-0.1,4.1,1.4,5.6l14.2,13.8c0.4,0.4,0.6,1,0.5,1.6l-3.3,19.5
	c-0.4,2.1,0.5,4.1,2.2,5.3c1,0.7,2.1,1,3.2,1c0.9,0,1.7-0.2,2.5-0.6l17.5-9.2c0.5-0.3,1.2-0.3,1.7,0l17.5,9.2c1.8,1,4,0.8,5.7-0.4
	c1.7-1.2,2.5-3.3,2.2-5.3l-3.3-19.5c-0.1-0.6,0.1-1.2,0.5-1.6l14.2-13.8c1.5-1.5,2-3.6,1.4-5.6C108.4,61.2,106.7,59.7,104.6,59.4z"
	/>
</svg>
