<?xml version="1.0" encoding="utf-8"?>
<!-- Generator: Adobe Illustrator 21.1.0, SVG Export Plug-In . SVG Version: 6.00 Build 0)  -->
<svg version="1.1" id="Layer_1" xmlns="http://www.w3.org/2000/svg" xmlns:xlink="http://www.w3.org/1999/xlink" x="0px" y="0px"
	 viewBox="0 0 298 59" style="enable-background:new 0 0 298 59;" xml:space="preserve">
<style type="text/css">
	.st0{fill:#CCCCCC;}
	.st1{clip-path:url(#SVGID_2_);fill:#7F7B75;}
	.st2{fill:none;stroke:#808080;stroke-width:0.25;stroke-miterlimit:10;}
	.st3{fill:#FFFFFF;}
	.st4{fill:#2254A5;}
	.st5{fill:#75AADB;}
</style>
<g>
	<g>
		<g>
			<path class="st3" d="M14.1,18.9H6.1V25h8.8v3.1H2.4V7.2h12.1v3.1H6.1v5.4h7.9L14.1,18.9z"/>
			<path class="st3" d="M17.2,7.2h12.1v3.1H21v5.9h7.7v3.1H21v8.9h-3.9V7.2z"/>
			<path class="st3" d="M31.2,7.2h12.1v3.1h-8.2v5.9h7.7v3.1h-7.7v8.9h-3.9L31.2,7.2L31.2,7.2z"/>
			<path class="st3" d="M48.4,7.2v21h-3.9v-21H48.4z"/>
			<path class="st3" d="M67.9,27.6c-0.9,0.4-2.9,1-5.4,1c-6.6,0-10.7-4.2-10.7-10.5c0-6.9,4.8-11,11.1-11c2.5,0,4.3,0.5,5.1,1
				l-0.9,2.9c-1-0.4-2.4-0.9-4.1-0.9c-4.3,0-7.3,2.7-7.3,7.7c0,4.6,2.7,7.5,7.3,7.5c1.6,0,3.2-0.3,4.2-0.7L67.9,27.6z"/>
			<path class="st3" d="M75.1,7.2v21h-3.9v-21H75.1z"/>
			<path class="st3" d="M90.1,18.9h-7.9V25H91v3.1H78.3V7.2h12.2v3.1h-8.4v5.4h7.9L90.1,18.9z"/>
			<path class="st3" d="M93.2,28.2v-21h4.4l5.4,9c1.4,2.4,2.6,4.7,3.5,7.1h0.1c-0.2-2.8-0.3-5.5-0.3-8.7V7.3h3.5v21h-4l-5.5-9.2
				c-1.3-2.2-2.8-4.9-3.7-7.3h-0.1c0.1,2.7,0.2,5.5,0.2,8.9v7.5H93.2z"/>
			<path class="st3" d="M129.3,27.6c-0.9,0.4-2.9,1-5.4,1c-6.6,0-10.7-4.2-10.7-10.5c0-6.9,4.8-11,11.1-11c2.5,0,4.3,0.5,5.1,1
				l-0.9,3c-1-0.4-2.4-0.9-4.1-0.9c-4.3,0-7.3,2.7-7.3,7.7c0,4.6,2.7,7.5,7.3,7.5c1.6,0,3.2-0.3,4.2-0.7L129.3,27.6z"/>
			<path class="st3" d="M139.5,28.2v-8.8l-6.6-12.2h4.4l2.5,5.4c0.7,1.6,1.3,2.8,1.8,4.2h0.1c0.5-1.3,1.1-2.7,1.8-4.2l2.5-5.4h4.3
				l-7,12.1v8.8h-3.7L139.5,28.2L139.5,28.2z"/>
		</g>
		<path class="st3" d="M158.6,23.3c1.3,0.6,3.2,1.3,5.2,1.3c2.1,0,3.3-0.9,3.3-2.2c0-1.3-1-2-3.5-3c-3.4-1.2-5.8-3.1-5.8-6.2
			c0-3.5,3-6.3,7.9-6.3c2.4,0,4.1,0.5,5.4,1.1l-1.1,3.9c-0.9-0.4-2.4-1-4.4-1c-2,0-3,1-3,2c0,1.3,1.2,1.9,3.9,3
			c3.7,1.4,5.5,3.3,5.5,6.2c0,3.5-2.7,6.5-8.5,6.5c-2.4,0-4.7-0.6-5.9-1.3L158.6,23.3z"/>
		<path class="st3" d="M188.3,19.3h-7.7v4.9h8.6v3.9h-13.4V7.2h13v3.9h-8.1v4.4h7.7V19.3z"/>
		<path class="st3" d="M193.1,7.5c1.5-0.2,3.7-0.4,6.3-0.4c3.1,0,5.2,0.4,6.7,1.6c1.3,1,1.9,2.5,1.9,4.4c0,2.7-1.9,4.5-3.7,5.1v0.1
			c1.5,0.6,2.2,2,2.8,4c0.6,2.4,1.3,5.1,1.7,5.9h-4.8c-0.3-0.6-0.9-2.2-1.5-4.9c-0.5-2.6-1.5-3.3-3.4-3.3h-1.4v8.2H193V7.5H193.1z
			 M197.9,16.5h1.8c2.4,0,3.7-1.2,3.7-3c0-1.9-1.3-2.9-3.4-2.9c-1.2,0-1.8,0.1-2.1,0.1V16.5z"/>
		<path class="st3" d="M217.7,28.2l-6.7-21h5.1l2.6,8.9c0.7,2.5,1.4,4.9,1.8,7.5h0.1c0.5-2.5,1.2-5,1.9-7.4l2.7-9h5l-7.1,21
			L217.7,28.2z"/>
		<path class="st3" d="M239.2,7.2v21h-4.7v-21H239.2z"/>
		<path class="st3" d="M259.4,27.6c-0.9,0.4-2.8,0.9-5.4,0.9c-7.3,0-10.9-4.5-10.9-10.5c0-7.2,5.1-11.1,11.5-11.1
			c2.5,0,4.3,0.5,5.1,1l-1,3.7c-1-0.4-2.2-0.7-4-0.7c-3.7,0-6.6,2.2-6.6,7c0,4.2,2.5,6.9,6.7,6.9c1.4,0,3-0.3,4-0.6L259.4,27.6z"/>
		<path class="st3" d="M276.3,19.3h-7.7v4.9h8.6v3.9h-13.4V7.2h13v3.9h-8.1v4.4h7.7L276.3,19.3L276.3,19.3z"/>
		<path class="st3" d="M281.9,23.3c1.3,0.6,3.2,1.3,5.2,1.3c2.1,0,3.3-0.9,3.3-2.2c0-1.3-1-2-3.5-3c-3.4-1.2-5.8-3.1-5.8-6.2
			c0-3.5,3-6.3,7.9-6.3c2.4,0,4.1,0.5,5.4,1.1l-1.1,3.9c-0.9-0.4-2.4-1-4.4-1c-2,0-3,1-3,2c0,1.3,1.2,1.9,3.9,3
			c3.7,1.4,5.5,3.3,5.5,6.2c0,3.5-2.7,6.5-8.5,6.5c-2.4,0-4.7-0.6-5.9-1.3L281.9,23.3z"/>
	</g>
	<rect x="2.4" y="2" class="st3" width="147.8" height="2.1"/>
	<rect x="158.8" y="31.9" class="st3" width="136.6" height="2.1"/>
	<g>
		<path class="st3" d="M253.2,51.2c-1,0.3-2.7,0.9-4.6,0.9c-2.5,0-4.3-0.6-5.7-1.9c-1.3-1.2-2-3.1-2-5.4c0-4.6,3.2-7.5,8-7.5
			c1.8,0,3.2,0.3,3.9,0.6l-0.5,2.1c-0.7-0.3-1.7-0.6-3.3-0.6c-3.1,0-5.2,1.8-5.2,5.1c0,3.3,2,5.2,5,5.2c1,0,1.6-0.1,2-0.3v-3.6h-2.6
			v-2h5.1v7.4L253.2,51.2z"/>
		<path class="st3" d="M255.6,44.8c0-1.4,0-2.5-0.1-3.3h2.2l0.1,2h0.1c0.5-1.5,1.7-2.2,2.9-2.2c0.2,0,0.4,0,0.6,0.1v2.5
			c-0.2,0-0.4-0.1-0.7-0.1c-1.3,0-2.1,0.9-2.4,2c0,0.2-0.1,0.5-0.1,0.9V52h-2.7L255.6,44.8L255.6,44.8z"/>
		<path class="st3" d="M272.5,46.6c0,3.9-2.7,5.6-5.4,5.6c-3,0-5.2-2-5.2-5.4c0-3.4,2.2-5.6,5.4-5.6
			C270.5,41.3,272.5,43.4,272.5,46.6z M264.7,46.7c0,2,1,3.5,2.6,3.5c1.5,0,2.6-1.5,2.6-3.5c0-1.6-0.7-3.5-2.6-3.5
			C265.4,43.2,264.7,44.9,264.7,46.7z"/>
		<path class="st3" d="M283.6,48.8c0,1.3,0,2.2,0.1,3.1h-2.4l-0.1-1.6l0,0c-0.4,0.7-1.5,1.8-3.3,1.8c-1.9,0-3.6-1.2-3.6-4.5v-6.1
			h2.7v5.7c0,1.7,0.5,2.9,1.9,2.9c1.1,0,1.7-0.7,2-1.4c0.1-0.2,0.1-0.5,0.1-0.9v-6.3h2.7v7.3L283.6,48.8z"/>
		<path class="st3" d="M286.1,44.9c0-1.4,0-2.5-0.1-3.4h2.4l0.1,1.6l0,0c0.7-1.2,2-1.8,3.5-1.8c2.4,0,4.4,2,4.4,5.4
			c0,3.7-2.4,5.6-4.7,5.6c-1.3,0-2.4-0.5-2.9-1.4l0,0v5.4h-2.7V44.9L286.1,44.9z M288.8,47.5c0,0.2,0,0.5,0.1,0.7
			c0.2,1.1,1.2,1.8,2.4,1.8c1.7,0,2.7-1.4,2.7-3.4c0-1.8-0.9-3.3-2.6-3.3c-1.1,0-2.1,0.7-2.4,1.9c-0.1,0.2-0.1,0.4-0.1,0.6v1.6
			L288.8,47.5L288.8,47.5z"/>
	</g>
</g>
</svg>
