<?xml version="1.0" encoding="utf-8"?>
<!-- Generator: Adobe Illustrator 21.1.0, SVG Export Plug-In . SVG Version: 6.00 Build 0)  -->
<svg version="1.1" id="Layer_1" xmlns="http://www.w3.org/2000/svg" xmlns:xlink="http://www.w3.org/1999/xlink" x="0px" y="0px"
	 viewBox="0 0 29 29" style="enable-background:new 0 0 29 29;" xml:space="preserve">
<style type="text/css">
	.st0{fill:#CCCCCC;}
	.st1{clip-path:url(#SVGID_2_);fill:#7F7B75;}
	.st2{fill:none;stroke:#808080;stroke-width:0.25;stroke-miterlimit:10;}
	.st3{fill:#FFFFFF;}
	.st4{fill:#2254A5;}
	.st5{fill:#75AADB;}
</style>
<g>
	<ellipse class="st0" cx="14.6" cy="14.5" rx="14.1" ry="14.2"/>
	<g>
		<defs>
			<ellipse id="SVGID_1_" cx="14.6" cy="14.5" rx="14.1" ry="14.2"/>
		</defs>
		<clipPath id="SVGID_2_">
			<use xlink:href="#SVGID_1_"  style="overflow:visible;"/>
		</clipPath>
		<path class="st1" d="M22.9,21.1c-0.8-0.4-2.1-0.6-3.7-1.1c0,0-0.2-0.5-0.3-0.8c-0.3-0.5-0.4-0.6-1.1-0.6c0,0,0,0,0,0
			c-0.1-0.5-0.1-0.9,0-1.3c0.1-0.1,0.2-0.2,0.3-0.3c0.3-0.4,0.5-1.3,0.5-1.7c0,0,0.1-0.1,0.1-0.1c0.1,0,0.2,0,0.3-0.1
			c0-0.1,0.1-0.2,0.1-0.2c0.1-0.2,0.2-0.5,0.3-0.7c0.3-0.5,0.6-1,0.5-1.7c0-0.3-0.1-0.6-0.1-1c0-0.1-0.1-0.1-0.2-0.1c0,0,0,0,0,0
			c0,0,0,0,0,0c0-0.2-0.1-0.6-0.1-0.8c0.1,0,0.1,0.1,0.1,0.1c0-0.4,0-0.8,0-1.1c0-0.3,0-0.5,0-0.7c0,0,0,0,0,0c0,0,0-0.1,0-0.2l0,0
			c-0.1-0.2-0.1-0.4-0.2-0.6c0-0.2-0.1-0.4-0.1-0.4c0-0.1-0.1-0.2-0.1-0.3c-0.3-1.2,0.1-1.1,0.1-1.1c-1-0.5-1.7-0.8-2.1-0.9
			C17,5,16.8,4.9,16.5,4.8c0.1-0.2,0.8,0,0.8,0c-3.5-1.5-5-0.3-5.5,0.2c-0.1,0-0.1,0.1-0.2,0.1c-0.3-0.3-0.5-0.4-1.2-0.1
			C9.7,5.4,9.8,6,9.2,6.5C8.7,7,9,8.7,9,8.7c0,0.2,0,0.5,0,0.7c0,0.1,0,0.1,0,0.2c0,0.4,0.1,0.8,0.1,1.1c0.1,0,0.1-0.1,0.2-0.1
			c0,0,0,0,0,0c0,0.2-0.1,0.4-0.1,0.6c0,0,0,0.1,0,0.1c-0.1,0-0.2,0-0.2,0.1c0,0.3-0.1,0.6-0.1,1c0,0.6,0.2,1.1,0.5,1.7
			c0.1,0.2,0.2,0.5,0.3,0.7c0,0.1,0.1,0.2,0.1,0.2c0.1,0.1,0.2,0.1,0.3,0.1c0,0,0.1,0,0.1,0.1c0,0.5,0.1,1.3,0.5,1.7
			c0.1,0.1,0.2,0.2,0.3,0.3c0.1,0.4,0.1,0.9,0,1.3c-0.7,0-0.9,0.1-1.1,0.6c-0.1,0.2-0.3,0.8-0.3,0.8c-1.5,0.5-2.8,0.7-3.6,1.1
			c-2.3,1.2-2.9,2.9-3.1,8.1H26C25.8,24,25.2,22.2,22.9,21.1C22.1,20.6,25.2,22.2,22.9,21.1z"/>
	</g>
	<ellipse class="st2" cx="14.6" cy="14.5" rx="14.1" ry="14.2"/>
</g>
</svg>
