<?xml version="1.0" encoding="utf-8"?>
<!-- Generator: Adobe Illustrator 21.1.0, SVG Export Plug-In . SVG Version: 6.00 Build 0)  -->
<svg version="1.1" id="Layer_1" xmlns="http://www.w3.org/2000/svg" xmlns:xlink="http://www.w3.org/1999/xlink" x="0px" y="0px"
	 viewBox="0 0 298 59" style="enable-background:new 0 0 298 59;" xml:space="preserve">
<style type="text/css">
	.st0{fill:#CCCCCC;}
	.st1{clip-path:url(#SVGID_2_);fill:#7F7B75;}
	.st2{fill:none;stroke:#808080;stroke-width:0.25;stroke-miterlimit:10;}
	.st3{fill:#FFFFFF;}
	.st4{fill:#2254A5;}
	.st5{fill:#75AADB;}
</style>
<g>
	<g>
		<g>
			<path class="st4" d="M13.9,19.4H6v6.1h8.7v3.1H2.2V7.7h12.1v3.1H6v5.3h7.9L13.9,19.4z"/>
			<path class="st4" d="M17,7.7H29v3.1h-8.2v5.9h7.7v3.1h-7.7v8.9H17V7.7z"/>
			<path class="st4" d="M30.9,7.7H43v3.1h-8.2v5.9h7.7v3.1h-7.7v8.9h-3.8L30.9,7.7L30.9,7.7z"/>
			<path class="st4" d="M48.1,7.7v20.9h-3.8V7.7H48.1z"/>
			<path class="st4" d="M67.5,28c-0.9,0.4-2.9,1-5.3,1c-6.6,0-10.7-4.2-10.7-10.5c0-6.8,4.8-11,11.1-11c2.5,0,4.3,0.5,5.1,1
				l-0.9,2.9c-1-0.4-2.3-0.9-4.1-0.9c-4.3,0-7.3,2.7-7.3,7.7c0,4.6,2.7,7.5,7.3,7.5c1.6,0,3.2-0.3,4.2-0.7L67.5,28z"/>
			<path class="st4" d="M74.7,7.7v20.9h-3.8V7.7H74.7z"/>
			<path class="st4" d="M89.6,19.4h-7.9v6.1h8.7v3.1H77.9V7.7H90v3.1h-8.3v5.3h7.9L89.6,19.4z"/>
			<path class="st4" d="M92.7,28.6V7.7h4.4l5.3,9c1.4,2.3,2.6,4.7,3.5,7h0.1c-0.2-2.8-0.3-5.4-0.3-8.6V7.9h3.5v20.9h-3.9l-5.4-9.2
				c-1.3-2.2-2.8-4.9-3.7-7.3H96c0.1,2.7,0.2,5.4,0.2,8.9v7.5H92.7z"/>
			<path class="st4" d="M128.6,28c-0.9,0.4-2.9,1-5.3,1c-6.6,0-10.7-4.2-10.7-10.5c0-6.8,4.8-11,11.1-11c2.5,0,4.3,0.5,5.1,1l-0.9,3
				c-1-0.4-2.3-0.9-4.1-0.9c-4.3,0-7.3,2.7-7.3,7.7c0,4.6,2.7,7.5,7.3,7.5c1.6,0,3.2-0.3,4.2-0.7L128.6,28z"/>
			<path class="st4" d="M138.8,28.6v-8.7l-6.6-12.2h4.4l2.5,5.3c0.7,1.6,1.3,2.8,1.8,4.2h0.1c0.5-1.3,1.1-2.7,1.8-4.2l2.5-5.3h4.3
				l-6.9,12.1v8.7h-3.7L138.8,28.6L138.8,28.6z"/>
		</g>
		<path class="st5" d="M157.7,23.7c1.3,0.6,3.2,1.3,5.2,1.3c2.1,0,3.3-0.9,3.3-2.2c0-1.3-1-2-3.5-3c-3.4-1.2-5.8-3.1-5.8-6.2
			c0-3.5,3-6.3,7.9-6.3c2.3,0,4.1,0.5,5.3,1.1l-1.1,3.8c-0.9-0.4-2.3-1-4.4-1s-3,1-3,2c0,1.3,1.2,1.9,3.8,3c3.7,1.4,5.4,3.3,5.4,6.2
			c0,3.5-2.7,6.5-8.4,6.5c-2.3,0-4.7-0.6-5.9-1.3L157.7,23.7z"/>
		<path class="st5" d="M187.4,19.8h-7.7v4.9h8.5v3.8h-13.3V7.7h12.9v3.8h-8.1V16h7.7V19.8z"/>
		<path class="st5" d="M192.2,8.1c1.5-0.2,3.7-0.4,6.3-0.4c3.1,0,5.2,0.4,6.7,1.6c1.3,1,1.9,2.5,1.9,4.4c0,2.7-1.9,4.5-3.7,5.1v0.1
			c1.5,0.6,2.2,2,2.8,3.9c0.6,2.3,1.3,5.1,1.7,5.9h-4.8c-0.3-0.6-0.9-2.2-1.5-4.9c-0.5-2.6-1.5-3.3-3.4-3.3h-1.4v8.2h-4.7V8.1H192.2
			z M196.9,17h1.8c2.3,0,3.7-1.2,3.7-3c0-1.9-1.3-2.9-3.4-2.9c-1.2,0-1.8,0.1-2.1,0.1V17z"/>
		<path class="st5" d="M216.6,28.6l-6.7-20.9h5.1l2.6,8.9c0.7,2.5,1.4,4.9,1.8,7.5h0.1c0.5-2.5,1.2-5,1.9-7.4l2.7-9h5l-7,20.9
			L216.6,28.6z"/>
		<path class="st5" d="M238,7.7v20.9h-4.7V7.7H238z"/>
		<path class="st5" d="M258.2,28c-0.9,0.4-2.8,0.9-5.3,0.9c-7.3,0-10.9-4.5-10.9-10.5c0-7.1,5.1-11.1,11.4-11.1c2.5,0,4.3,0.5,5.1,1
			l-1,3.7c-1-0.4-2.2-0.7-3.9-0.7c-3.7,0-6.6,2.2-6.6,6.9c0,4.2,2.5,6.8,6.7,6.8c1.4,0,3-0.3,3.9-0.6L258.2,28z"/>
		<path class="st5" d="M274.9,19.8h-7.7v4.9h8.5v3.8h-13.3V7.7h12.9v3.8h-8.1V16h7.7L274.9,19.8L274.9,19.8z"/>
		<path class="st5" d="M280.6,23.7c1.3,0.6,3.2,1.3,5.2,1.3c2.1,0,3.3-0.9,3.3-2.2c0-1.3-1-2-3.5-3c-3.4-1.2-5.8-3.1-5.8-6.2
			c0-3.5,3-6.3,7.9-6.3c2.3,0,4.1,0.5,5.3,1.1l-1.1,3.8c-0.9-0.4-2.3-1-4.4-1c-2,0-3,1-3,2c0,1.3,1.2,1.9,3.8,3
			c3.7,1.4,5.4,3.3,5.4,6.2c0,3.5-2.7,6.5-8.4,6.5c-2.3,0-4.7-0.6-5.9-1.3L280.6,23.7z"/>
	</g>
	<rect x="2.2" y="2.5" class="st4" width="147.2" height="2.1"/>
	<rect x="158" y="32.4" class="st5" width="136" height="2.1"/>
	<g>
		<path class="st4" d="M252,51.6c-1,0.3-2.7,0.9-4.6,0.9c-2.5,0-4.3-0.6-5.7-1.9c-1.3-1.2-2-3.1-2-5.3c0-4.6,3.2-7.5,8-7.5
			c1.8,0,3.2,0.3,3.8,0.6l-0.5,2.1c-0.7-0.3-1.7-0.6-3.3-0.6c-3.1,0-5.2,1.8-5.2,5.1s2,5.2,5,5.2c1,0,1.6-0.1,2-0.3v-3.6H247v-2h5.1
			v7.4L252,51.6z"/>
		<path class="st4" d="M254.4,45.2c0-1.4,0-2.5-0.1-3.3h2.2l0.1,2h0.1c0.5-1.5,1.7-2.2,2.9-2.2c0.2,0,0.4,0,0.6,0.1v2.5
			c-0.2,0-0.4-0.1-0.7-0.1c-1.3,0-2.1,0.9-2.3,2c0,0.2-0.1,0.5-0.1,0.9v5.3h-2.7L254.4,45.2L254.4,45.2z"/>
		<path class="st4" d="M271.2,47c0,3.8-2.7,5.5-5.3,5.5c-3,0-5.2-2-5.2-5.3c0-3.4,2.2-5.5,5.3-5.5C269.2,41.7,271.2,43.8,271.2,47z
			 M263.4,47.1c0,2,1,3.5,2.6,3.5c1.5,0,2.6-1.5,2.6-3.5c0-1.6-0.7-3.5-2.6-3.5C264.2,43.6,263.4,45.3,263.4,47.1z"/>
		<path class="st4" d="M282.3,49.1c0,1.3,0,2.2,0.1,3.1h-2.3l-0.1-1.6l0,0c-0.4,0.7-1.5,1.8-3.3,1.8c-1.9,0-3.6-1.2-3.6-4.5v-6.1
			h2.7v5.7c0,1.7,0.5,2.9,1.9,2.9c1.1,0,1.7-0.7,2-1.4c0.1-0.2,0.1-0.5,0.1-0.9v-6.3h2.7v7.3L282.3,49.1z"/>
		<path class="st4" d="M284.8,45.3c0-1.4,0-2.5-0.1-3.4h2.3l0.1,1.6l0,0c0.7-1.2,2-1.8,3.5-1.8c2.3,0,4.4,2,4.4,5.3
			c0,3.7-2.3,5.5-4.7,5.5c-1.3,0-2.3-0.5-2.9-1.4l0,0v5.3h-2.7L284.8,45.3L284.8,45.3z M287.4,47.8c0,0.2,0,0.5,0.1,0.7
			c0.2,1.1,1.2,1.8,2.3,1.8c1.7,0,2.7-1.4,2.7-3.4c0-1.8-0.9-3.3-2.6-3.3c-1.1,0-2.1,0.7-2.3,1.9c-0.1,0.2-0.1,0.4-0.1,0.6v1.6
			L287.4,47.8L287.4,47.8z"/>
	</g>
</g>
</svg>
