<?xml version="1.0" encoding="utf-8"?>
<!-- Generator: Adobe Illustrator 21.0.0, SVG Export Plug-In . SVG Version: 6.00 Build 0)  -->
<svg version="1.1" id="Layer_1" xmlns="http://www.w3.org/2000/svg" xmlns:xlink="http://www.w3.org/1999/xlink" x="0px" y="0px"
	 viewBox="0 0 543.6 218.6" style="enable-background:new 0 0 543.6 218.6;" xml:space="preserve">
<style type="text/css">
	.st0{fill:#FFFFFF;}
</style>
<g>
	<path class="st0" d="M281.3,11.6c3.5-2.1,3.7-5.4,3.7-5.4h-70.5c0,0,0.6,2.7,3.7,5.4c8.2,7.2,32,6.4,26.5,26
		s-34.5,105.6-34.5,105.6l-1.3,0c0,0-37.7-108.7-39-114c-3.2-13.3,10.3-15.4,13.9-17.6c3.5-2.1,3.7-5.4,3.7-5.4h-81.3
		c0,0,0.2,3.3,3.7,5.4c3.5,2.1,9.5,3.6,14.3,16.4c1.6,4.2,8.7,24.5,17.5,49.8l-32.1,72.6l-0.6-0.1c0,0-38.5-115.8-39.9-121.1
		C66,15.9,79.6,13.7,83.1,11.6c3.5-2.1,3.7-5.4,3.7-5.4H5.6c0,0,0.2,3.3,3.7,5.4c3.5,2.1,9.5,3.6,14.3,16.4
		c4.8,12.8,59.7,170.6,61.5,176.8c1.8,6.2,4.5,8.7,7.1,8.7c2.6,0,6.1-3.1,8.8-9.3c2.6-6.3,47.3-107.3,47.3-107.3l0.1-0.2
		c16.8,48.2,36.3,104.5,37.4,108.1c1.8,6.2,4.5,8.7,7.1,8.7c2.6,0,6.1-3.1,8.8-9.3C204.3,197.9,267,28,267,28
		C271.8,15.2,277.8,13.7,281.3,11.6z"/>
	<path class="st0" d="M297,96.2c0-3.4,0-24.4,0-24.4s0.3-3.9-3.1-2.5c-2.5,1-8.1,4.4-15.1,7.3c-7,2.9-12.2,2.9-12.2,4.9
		s0.3,3.1,3.7,5.1c3.4,2,4.9,6.1,4.9,9.5c0,3.4,0,39.8,0,44.6s-3.6,9.8-6.6,10.3c-1.8,0.3-3.6,0.5-4.7,0.7c-1.2,0.2-2,0.9-1.7,2.2
		c0.3,1.3,0.3,3.4,2.8,3.4h42.1c2.5,0,2.5-2.1,2.8-3.4c0.3-1.3-0.5-2.1-1.7-2.2c-1.2-0.2-2.9-0.3-4.7-0.7c-3-0.5-6.6-5.5-6.6-10.3
		S297,99.6,297,96.2z"/>
	<path class="st0" d="M319.5,157.4h42.1c2.5,0,2.5-2.1,2.8-3.4c0.3-1.3-0.5-2.1-1.7-2.2c-1.2-0.2-2.9-0.3-4.7-0.7
		c-3-0.5-6.6-5.5-6.6-10.3s0-104.1,0-107.4s0-24.4,0-24.4s0.3-3.9-3.1-2.5c-2.5,1-8.1,4.4-15.1,7.3c-7,2.9-12.2,2.9-12.2,4.9
		s0.3,3.1,3.7,5.1c3.4,2,4.9,6.1,4.9,9.5s0,102.6,0,107.4s-3.6,9.8-6.6,10.3c-1.8,0.3-3.6,0.5-4.7,0.7c-1.2,0.2-2,0.9-1.7,2.2
		C317,155.3,317.1,157.4,319.5,157.4z"/>
	<circle class="st0" cx="285.6" cy="48.6" r="13.7"/>
	<path class="st0" d="M405.4,159.9c29.3,0,37.9-23.2,37.9-23.2l-3.6-3.6c0,0-6.3,11.7-23.6,11.7c-17.3,0-30-14.2-30-33
		S397.7,80,409.5,80c14.7,0,17.9,15.2,23.6,15.2c5,0,5.7-7,5.7-11.1s-1.2-12.3-20.9-12.3c-24.8,0-52.7,12-52.7,46.8
		C365.2,151.3,390.5,159.9,405.4,159.9z"/>
	<path class="st0" d="M491.2,159.9c27.3,0,45.7-16.8,45.7-45.3s-23.8-42.7-44.3-42.7c-28,0-46.2,20.5-46.2,45.3
		S463.9,159.9,491.2,159.9z M490.3,80.1c7.8,0,21.8,8.6,21.8,37s-8.6,34.3-18.7,34.3c-10,0-22.1-9.3-22.1-37.6
		S481.5,80.1,490.3,80.1z"/>
	<polygon class="st0" points="219.3,192.4 534.3,192.4 534.3,170.1 227,170.1 	"/>
</g>
</svg>
