<?xml version="1.0" encoding="utf-8"?>
<!-- Generator: Adobe Illustrator 20.0.0, SVG Export Plug-In . SVG Version: 6.00 Build 0)  -->
<svg version="1.1" id="Layer_1" xmlns="http://www.w3.org/2000/svg" xmlns:xlink="http://www.w3.org/1999/xlink" x="0px" y="0px"
	 viewBox="0 0 178 72" enable-background="new 0 0 178 72" xml:space="preserve">
<g>
	<polygon fill="#286EAB" points="71.7,70.3 173.6,70.3 173.6,62.9 76.9,62.9 	"/>
	<path fill="#286EAB" d="M95.6,31.1h-1.3c0,0-2.8,2.1-8.4,3.7v0.7c0,0,3.3,0.8,3.3,2.7c0,2.3,0,15.4,0,16.6s-1.7,2.7-2.7,2.7
		s-1.9,0-1.9,0v1.8h15.7v-1.8c0,0-0.9,0-1.9,0c-1,0-2.7-1.5-2.7-2.7V31.1z"/>
	<circle fill="#286EAB" cx="91.7" cy="23" r="3.9"/>
	<path fill="#286EAB" d="M118.2,57.4c0,0-0.9,0-1.9,0c-1,0-2.7-1.5-2.7-2.7v-44h-1.3c0,0-2.8,2.1-8.4,3.7V15c0,0,3.3,0.8,3.3,2.7
		c0,2.3,0,35.8,0,37s-1.7,2.7-2.7,2.7c-1,0-1.9,0-1.9,0v1.8h15.7V57.4z"/>
	<path fill="#286EAB" d="M133.7,59.2c8.3,0,11.5-7.3,11.5-7.3l-0.9-0.7c0,0-2.1,3.9-6.9,3.9c-4.3,0-10.8-2.5-10.8-10.8
		s5.7-10.8,8.8-10.8c3.1,0,4.8,4.2,7.1,4c2.3-0.2,4.2-6.4-6.2-6.4c-10.5,0-16,7.4-16,14.9C120.1,53.6,125.5,59.2,133.7,59.2z"/>
	<path fill="#286EAB" d="M160.5,59.7c7.9,0,14.4-6.4,14.4-14.3c0-7.9-6.4-14.3-14.4-14.3c-7.9,0-14.4,6.4-14.4,14.3
		C146.1,53.3,152.5,59.7,160.5,59.7z M160.5,32.9c4.2,0,6.4,6.1,6.4,12.9c0,6.8-2.2,11.8-6.4,11.8c-4.2,0-6.8-6-6.8-12.8
		C153.8,37.9,156.3,32.9,160.5,32.9z"/>
	<path fill="#286EAB" d="M94.3,4.3V2.8H72.2v1.9c0,0,2.3,0.6,6,1.9c3.3,1.1,4.3,3.7,4,4.8l-12,39.9c0,0-12.4-38.9-13.4-41.5
		c-1.2-3.1,3-5.8,6.1-5.4V2.8H36.5v1.5c0,0,5.2,1.2,7.6,8.8c0.7,2,2.4,7,4.6,13.3L36.5,51.2c0,0-12.5-38.8-13.4-41.5
		c-1.1-3.1,3-5.8,6.1-5.4V2.8H2.9v1.5c0,0,5.2,1.2,7.6,8.8c2.5,7.6,20,57.2,20,57.2h1.9l17.7-39.7c6,17,14,39.7,14,39.7h1.9
		c0,0,17.7-50.9,19.7-56.7C87.9,7.8,94.3,4.3,94.3,4.3z"/>
</g>
</svg>
